<svg xmlns="http://www.w3.org/2000/svg" version="1.1" xmlns:xlink="http://www.w3.org/1999/xlink" xmlns:svgjs="http://svgjs.dev/svgjs" width="1440" height="560" preserveAspectRatio="none" viewBox="0 0 1440 560"><g mask="url(&quot;#SvgjsMask1078&quot;)" fill="none"><rect width="1440" height="560" x="0" y="0" fill="url(&quot;#SvgjsLinearGradient1079&quot;)"></rect><path d="M1440 0L1156.96 0L1440 58.9z" fill="rgba(255, 255, 255, .1)"></path><path d="M1156.96 0L1440 58.9L1440 125.03999999999999L784.5600000000001 0z" fill="rgba(255, 255, 255, .075)"></path><path d="M784.56 0L1440 125.03999999999999L1440 333.11L631.53 0z" fill="rgba(255, 255, 255, .05)"></path><path d="M631.53 0L1440 333.11L1440 481.19000000000005L608.1999999999999 0z" fill="rgba(255, 255, 255, .025)"></path><path d="M0 560L144.95 560L0 469.84000000000003z" fill="rgba(0, 0, 0, .1)"></path><path d="M0 469.84000000000003L144.95 560L222.2 560L0 239.67000000000004z" fill="rgba(0, 0, 0, .075)"></path><path d="M0 239.67000000000002L222.2 560L260.7 560L0 107.85000000000002z" fill="rgba(0, 0, 0, .05)"></path><path d="M0 107.85000000000002L260.7 560L496.34 560L0 96.22000000000003z" fill="rgba(0, 0, 0, .025)"></path></g><defs><mask id="SvgjsMask1078"><rect width="1440" height="560" fill="#ffffff"></rect></mask><linearGradient x1="100%" y1="50%" x2="0%" y2="50%" gradientUnits="userSpaceOnUse" id="SvgjsLinearGradient1079"><stop stop-color="#0e2a47" offset="0"></stop><stop stop-color="rgba(0, 216, 246, 1)" offset="1"></stop></linearGradient></defs></svg>