<svg xmlns="http://www.w3.org/2000/svg" version="1.1" xmlns:xlink="http://www.w3.org/1999/xlink" xmlns:svgjs="http://svgjs.dev/svgjs" width="1440" height="560" preserveAspectRatio="none" viewBox="0 0 1440 560"><g mask="url(&quot;#SvgjsMask1170&quot;)" fill="none"><rect width="1440" height="560" x="0" y="0" fill="url(&quot;#SvgjsRadialGradient1171&quot;)"></rect><path d="M1440 0L929.9 0L1440 8.38z" fill="rgba(255, 255, 255, .1)"></path><path d="M929.9 0L1440 8.38L1440 153.14L593.46 0z" fill="rgba(255, 255, 255, .075)"></path><path d="M593.46 0L1440 153.14L1440 260.37L486.48 0z" fill="rgba(255, 255, 255, .05)"></path><path d="M486.48 0L1440 260.37L1440 431.46000000000004L150.04000000000002 0z" fill="rgba(255, 255, 255, .025)"></path><path d="M0 560L88.07 560L0 330.56z" fill="rgba(0, 0, 0, .1)"></path><path d="M0 330.56L88.07 560L327.34000000000003 560L0 176.26z" fill="rgba(0, 0, 0, .075)"></path><path d="M0 176.26L327.34000000000003 560L375.01000000000005 560L0 136.7z" fill="rgba(0, 0, 0, .05)"></path><path d="M0 136.7L375.01000000000005 560L736.03 560L0 75.75999999999999z" fill="rgba(0, 0, 0, .025)"></path></g><defs><mask id="SvgjsMask1170"><rect width="1440" height="560" fill="#ffffff"></rect></mask><radialGradient cx="50%" cy="50%" r="772.53" gradientUnits="userSpaceOnUse" id="SvgjsRadialGradient1171"><stop stop-color="rgba(14, 42, 71, 1)" offset="0"></stop><stop stop-color="rgba(115, 94, 243, 1)" offset="1"></stop></radialGradient></defs></svg>