<svg xmlns="http://www.w3.org/2000/svg" version="1.1" xmlns:xlink="http://www.w3.org/1999/xlink" xmlns:svgjs="http://svgjs.dev/svgjs" width="1440" height="560" preserveAspectRatio="none" viewBox="0 0 1440 560"><g mask="url(&quot;#SvgjsMask1042&quot;)" fill="none"><rect width="1440" height="560" x="0" y="0" fill="url(&quot;#SvgjsLinearGradient1043&quot;)"></rect><path d="M18.51 256.46 a172.83 172.83 0 1 0 345.66 0 a172.83 172.83 0 1 0 -345.66 0z" fill="rgba(255, 255, 255, 0.4)" class="triangle-float1"></path><path d="M904.67 258.99 a146.18 146.18 0 1 0 292.36 0 a146.18 146.18 0 1 0 -292.36 0z" fill="rgba(255, 255, 255, 0.4)" class="triangle-float2"></path><path d="M1198.3968807480387 151.5125212084453L1300.720252635686 90.0304366350463 1239.2381680622868-12.29293525260087 1136.9147961746396 49.18914932079814z" fill="rgba(255, 255, 255, 0.4)" class="triangle-float3"></path><path d="M1112.456,256.198C1134.646,257.247,1160.196,255.821,1171.499,236.696C1182.916,217.378,1172.397,193.897,1160.533,174.85C1149.524,157.176,1133.275,141.542,1112.456,141.904C1092.111,142.258,1077.12,158.713,1067.191,176.474C1057.556,193.711,1052.603,214.362,1062.353,231.534C1072.203,248.884,1092.527,255.256,1112.456,256.198" fill="rgba(255, 255, 255, 0.4)" class="triangle-float3"></path><path d="M422.4978489033714 70.16178120766848L491.4333868677806 141.5466204672748 562.8182261273869 72.6110825028656 493.88268816297773 1.226243243259276z" fill="rgba(255, 255, 255, 0.4)" class="triangle-float2"></path><path d="M965.7382485711195 499.09309952101916L947.4585158418629 395.42358362611526 801.0941083641353 474.6779406674521z" fill="rgba(255, 255, 255, 0.4)" class="triangle-float1"></path><path d="M723.96 434.69 a145.03 145.03 0 1 0 290.06 0 a145.03 145.03 0 1 0 -290.06 0z" fill="rgba(255, 255, 255, 0.4)" class="triangle-float2"></path><path d="M1220.18 553.81 a158.99 158.99 0 1 0 317.98 0 a158.99 158.99 0 1 0 -317.98 0z" fill="rgba(255, 255, 255, 0.4)" class="triangle-float1"></path><path d="M1286.492,437.455C1308.547,437.443,1328.067,425.105,1339.897,406.491C1352.776,386.226,1358.783,361.552,1348.53,339.84C1336.708,314.805,1314.176,293.715,1286.492,293.401C1258.389,293.082,1233.983,312.996,1221.968,338.404C1211.425,360.699,1219.527,385.884,1232.988,406.548C1245.037,425.045,1264.417,437.467,1286.492,437.455" fill="rgba(255, 255, 255, 0.4)" class="triangle-float3"></path><path d="M1378.8983073994189 509.2315006687444L1465.3646314556381 479.45875767653564 1435.5918884634293 392.99243362031643 1349.12556440721 422.7651766125251z" fill="rgba(255, 255, 255, 0.4)" class="triangle-float3"></path><path d="M830.81 272.21 a179.59 179.59 0 1 0 359.18 0 a179.59 179.59 0 1 0 -359.18 0z" fill="rgba(255, 255, 255, 0.4)" class="triangle-float3"></path><path d="M131.406,389.056C179.679,389.138,228.803,373.533,254.074,332.403C280.427,289.511,276.736,235.781,252.786,191.502C227.513,144.776,184.506,107.17,131.406,105.615C75.856,103.988,23.412,135.086,-2.945,184.013C-28.105,230.718,-19.614,287.612,9.461,331.986C35.824,372.22,83.304,388.974,131.406,389.056" fill="rgba(255, 255, 255, 0.4)" class="triangle-float1"></path><path d="M805.4239131795639 113.40458258397227L842.0845250374401-6.506875706593249 685.5124548889984 76.743970726096z" fill="rgba(255, 255, 255, 0.4)" class="triangle-float3"></path><path d="M1406.9939978164987 281.0229296753135L1466.2974886121226 153.84618325372284 1339.120742190532 94.54269245809883 1279.817251394908 221.7194388796895z" fill="rgba(255, 255, 255, 0.4)" class="triangle-float2"></path><path d="M263.496,295.445C314.639,295.449,362.668,270.924,389.402,227.325C417.427,181.621,423.481,124.168,397.157,77.464C370.397,29.985,317.993,4.593,263.496,3.939C207.751,3.27,151.529,25.62,124.16,74.188C97.2,122.03,108.362,180.837,137.625,227.305C164.875,270.576,212.36,295.441,263.496,295.445" fill="rgba(255, 255, 255, 0.4)" class="triangle-float1"></path><path d="M1262.471,510.162C1288.12,510.994,1314.632,501.39,1327.193,479.013C1339.549,457.002,1332.7,430.23,1319.373,408.793C1306.88,388.699,1286.125,375.472,1262.471,374.908C1237.767,374.319,1213.029,384.567,1200.669,405.965C1188.306,427.369,1192.025,453.778,1204.635,475.038C1216.968,495.831,1238.309,509.378,1262.471,510.162" fill="rgba(255, 255, 255, 0.4)" class="triangle-float2"></path><path d="M836.5145513621012 61.02195695944843L788.6058565944702-86.90538776710154 695.9056334028933 12.503430995849982z" fill="rgba(255, 255, 255, 0.4)" class="triangle-float1"></path><path d="M287.9769965365693 254.74751382279607L419.52155841867733 340.1735511528767 504.947595748758 208.6289892707687 373.40303386664993 123.20295194068802z" fill="rgba(255, 255, 255, 0.4)" class="triangle-float1"></path></g><defs><mask id="SvgjsMask1042"><rect width="1440" height="560" fill="#ffffff"></rect></mask><linearGradient x1="15.28%" y1="-39.29%" x2="84.72%" y2="139.29%" gradientUnits="userSpaceOnUse" id="SvgjsLinearGradient1043"><stop stop-color="#0e2a47" offset="0"></stop><stop stop-color="rgba(115, 94, 243, 1)" offset="1"></stop></linearGradient><style>
                @keyframes float1 {
                    0%{transform: translate(0, 0)}
                    50%{transform: translate(-10px, 0)}
                    100%{transform: translate(0, 0)}
                }

                .triangle-float1 {
                    animation: float1 5s infinite;
                }

                @keyframes float2 {
                    0%{transform: translate(0, 0)}
                    50%{transform: translate(-5px, -5px)}
                    100%{transform: translate(0, 0)}
                }

                .triangle-float2 {
                    animation: float2 4s infinite;
                }

                @keyframes float3 {
                    0%{transform: translate(0, 0)}
                    50%{transform: translate(0, -10px)}
                    100%{transform: translate(0, 0)}
                }

                .triangle-float3 {
                    animation: float3 6s infinite;
                }
            </style></defs></svg>