<svg xmlns="http://www.w3.org/2000/svg" version="1.1" xmlns:xlink="http://www.w3.org/1999/xlink" xmlns:svgjs="http://svgjs.dev/svgjs" width="1440" height="560" preserveAspectRatio="none" viewBox="0 0 1440 560"><g mask="url(&quot;#SvgjsMask1320&quot;)" fill="none"><rect width="1440" height="560" x="0" y="0" fill="url(&quot;#SvgjsLinearGradient1321&quot;)"></rect><path d="M1440 0L994.3199999999999 0L1440 267.41z" fill="rgba(255, 255, 255, .1)"></path><path d="M994.3199999999999 0L1440 267.41L1440 377.49L980.9999999999999 0z" fill="rgba(255, 255, 255, .075)"></path><path d="M981 0L1440 377.49L1440 464.39L772.54 0z" fill="rgba(255, 255, 255, .05)"></path><path d="M772.54 0L1440 464.39L1440 490.13L469.89 0z" fill="rgba(255, 255, 255, .025)"></path><path d="M0 560L238.02 560L0 440.65z" fill="rgba(0, 0, 0, .1)"></path><path d="M0 440.65L238.02 560L760.15 560L0 296.86z" fill="rgba(0, 0, 0, .075)"></path><path d="M0 296.86L760.15 560L1140.12 560L0 240.9z" fill="rgba(0, 0, 0, .05)"></path><path d="M0 240.90000000000003L1140.12 560L1193.51 560L0 226.60000000000002z" fill="rgba(0, 0, 0, .025)"></path></g><defs><mask id="SvgjsMask1320"><rect width="1440" height="560" fill="#ffffff"></rect></mask><linearGradient x1="50%" y1="0%" x2="50%" y2="100%" gradientUnits="userSpaceOnUse" id="SvgjsLinearGradient1321"><stop stop-color="rgba(255, 255, 255, 1)" offset="0"></stop><stop stop-color="rgba(88, 61, 253, 1)" offset="1"></stop></linearGradient></defs></svg>